<svg data-name="Layer 1" xmlns="http://www.w3.org/2000/svg" viewBox="0 0 606.57 624"><title>fav</title><path d="M218.23 264.49h.05c0-.08-.05-.15-.07-.23z" fill="#a57b00"/><path d="M35.45 413.27a4.49 4.49 0 0 0 2 .45c8-.29 15.29 3.21 23.2 3.6 16 .79 31.88 4.82 48.14 2.43a46.17 46.17 0 0 1 13.41.52c12.65 1.93 25.21 2 37.75-.8a78.77 78.77 0 0 1 9.17-1.44c7.6-.79 8.48-.1 7.34 7.73-.9 6.21-.64 12.37-.79 18.57a49 49 0 0 1-1.4 12.29 236 236 0 0 0-9.2 50.78c-1.07 16.6-4.78 33.6 2.31 49.88a3.11 3.11 0 0 1 .23 2c-3 8.33 1.73 15.3 3.89 22.74a27.49 27.49 0 0 0 9 13.51c4.39 3.8 9.92 6.8 12.62 12 4.46 8.68 12.29 11.84 20.8 13.64a113.17 113.17 0 0 0 22.5 2.74c21 .15 41.79-3.18 62.54-6.22a135.21 135.21 0 0 1 24.68-1.7c11.79.44 24.24.54 34.49-4.6 10.94-5.49 22.87-8.57 33.35-15.61 8.86-6 17.35-12.44 25.83-18.79a101.11 101.11 0 0 0 16.53-15.33 80.14 80.14 0 0 0 18.41-39.87c.71-4.61 2.46-6.31 6.74-4.67 7.39 2.82 15 5 21.85 9.26 11 6.86 23 9.5 36.21 9 8.18-.3 12.59-6.69 19.38-9a39.28 39.28 0 0 0 18.5-12.86c5.68-7.34 13.35-12.28 19.52-18.95 11.63-12.59 21.52-26.06 26.26-42.8 1.22-4.32 2.35-8.67 3.74-12.94a41.4 41.4 0 0 0 1.62-19.36c-2.4-15.65-4.88-31.37-6.43-47-2.29-23.1-8.66-45.32-12.17-68.14-3.22-20.92-6.56-42.36-16-61.89-2.59-5.37-1.65-9.34 2.32-13.95 10.79-12.52 17.06-27.41 20.36-43.55 1.72-8.44 3.16-16.94 4.94-25.36 3.67-17.37 2-34.39-3.68-51-3.62-10.61-9.17-20-19.83-25.42-8.32-4.23-17.11-4.82-26.13-4.65-6.84.12-13.92 1.06-20.42-1.07s-12.78-2.49-19.27-3.2c-8.52-.92-17.23-.53-25.38-4-10.47-4.42-21-8.55-32.11-11.32-13.17-3.29-26.11-5.6-39.32-.57a7 7 0 0 1-4 .47c-6.9-1.91-13.71-.67-20.54.25-8.33 1.13-16.14 1.11-22.16-6.38-2.1-2.6-5.42-4.21-8.18-6.28a129.85 129.85 0 0 0-62.65-25.24c-16.89-2.14-33.25-5.71-49-12.1-16.62-6.61-34.37-6.66-51.73-9.02-1.95-.26-4.06.56-6.08 1-4.71 1-9.5 1.73-14.19 2.69-8.36 1.72-17.21 3.69-22.86 10.85-9.29 11.79-20.72 22.23-25 37.42a6.58 6.58 0 0 1-1.49 2.7c-6.16 6.48-7.67 15.2-8 23.07-.63 17.22 1 34.41 7.22 50.9s11.82 33.05 17.48 49.66c3.17 9.29 2.44 10.92-5.68 16.15a60 60 0 0 1-5.37 3.12q-27.2 13.78-54.41 27.51l-.06-.1c-6.11 3.21-12.44 6.08-18.29 9.7-10.39 6.43-19.65 14.89-25 25.51-6.42 12.77-11.44 26.6-7.54 41.87 1.23 4.85.84 10.14 2.19 15.23 1.29 4.83-.35 9.61-4 13.33-3.86 4-7.18 8.33-11.3 12.08-13.19 12-16.61 28.45-6.51 45.86 6.78 11.56 17.6 19.07 29.65 24.67zm300.44 197.18c-3.71.85-7.44.41-11.16 0a8.9 8.9 0 0 1-1.86-.64c-.61-1.37.42-1.81 1.26-1.91 3.69-.41 7.39-.74 11.09-.95 1.33-.07 2.86.46 3 1.93.11 1.12-1.36 1.34-2.33 1.57zm8.89-.77c0 .08-.25.26-.25.26l.39-.44zm89-76.18c-7.17 14.38-17 26.5-30.28 35.82-7.86 5.53-14.53 12.88-21.35 14.5-16.38 6.52-30.17 9.75-45 9.56-19.68-.24-38.85 3.29-57.62 9.62-27.51 9.28-54.33 7.42-79.86-7.1-15.44-8.78-22.11-22.42-23.23-39.86-2.06-32 2.62-63.28 8-94.56a162.77 162.77 0 0 0 2.69-29.76c-.13-10.61 3.1-16.88 13.13-19.09 9.83-2.17 19.81-2.51 29.61-4.45 9.14-1.81 18.39-3.05 26.85-7.33 1.42-.72 3.15-2.13 4.54-.15s-.41 3.17-1.36 4.5c-4.37 6.17-8.79 12.3-13.17 18.45-1.83 2.57-3.68 5.11-7.28 5.12-2.51 0-4.17.92-3.3 3.66.7 2.22 2.65 3.11 4.93 2.71 4-.71 6.63-3.3 8.9-6.55 7.29-10.46 15.52-20.26 21.9-31.36a48.08 48.08 0 0 1 4.28-5.82c1.62-2 3.68-6.07 5.6-4.67 2.4 1.75-1.14 4.62-2.19 6.95-6.39 14.12-15.12 26.82-24.19 39.3-1.2 1.66-3.33 3.42-1.23 5.19 2.43 2.06 4.52-.06 6-2 3.84-5.31 7.45-10.78 11.31-16.07.85-1.16 1.22-3.72 3.53-2.48.42.23-.12 2.55-.47 3.83-2.64 9.77-7.47 18.49-13 26.86-.75 1.15-1.81 2.11-2.52 3.28-1 1.69-3.24 3.92-1.3 5.41 2.14 1.64 3.47-1.18 4.48-2.79 4.6-7.29 9.46-14.46 13.53-22 6-11.23 11.48-22.78 17.15-34.2 1.38-2.78 3-5.51 1.58-8.82-2.91-6.76 2-11.8 4-17.46a2.69 2.69 0 0 1 3.34-1.69c1.65.45 1.6 2.1 1.81 3.4 1 6-.82 11.62-3.07 17.1-5.59 13.63-8.88 28-13.83 41.86-3.47 9.7-6 19.86-11.15 28.87-2.66 4.63-3.56 9.67-4.91 14.63a3.59 3.59 0 0 0 1.77 4.43c2.46 1.16 4-.53 5-2.4 3.86-7.7 8.33-15.22 11.13-23.31 6.41-18.49 13.92-36.61 18.43-55.75 1.41-6 4.38-11.59 6.64-17.37.39-1 1.09-1.81 2.2-1.6 1.28.24 1.26 1.51 1.37 2.5 1.46 13.16 1.71 26.17-5 38.27-1 1.85-2.27 4-.07 5.49s3.95-.3 5.36-1.74c3.49-3.56 5-8.1 6.3-12.82 2.24-8.39 2.11-17.08 3.3-25.59.56-4 1.32-7.33 4.4-10 2.44-2.12 3.89-6.2 8.37-3.7 3.65 2 9.1 2.3 8.08 8.74-.21 1.31.28 2.73.43 4.09.18 1.61 1.31 3.63-.57 4.61s-3-.86-4-2.31c-1.09-1.75-2.7-2.27-4.39-1.36a3.28 3.28 0 0 0-1.24 4.53c5 10 .15 19.53-1.39 29.2-.3 1.88-2.1 4.19 1 5 2.32.64 3.67-1.26 4.72-3.17 2.34-4.29 3.63-8.94 5-13.59.24-.82 1.22-1.43 1.86-2.14.55.82 1.54 1.62 1.6 2.48.39 6.19 1.81 12.63.59 18.52-2 9.85-2.12 19.63-2.09 29.52 0 9.42 1.49 18.8 5.29 27.21a24 24 0 0 0 15.87 13.6c10.69 2.85 21.34 5.69 32.31 7.22 10 1.38 19.4 4.81 29.1 7.25 3.39.85 4.67 2.65 4.75 5.68.1 5.51-.47 11.08-2.97 16.1zm120-42.08c-6 10.14-14.69 16.65-24.14 23.15-17.4 12-32.06 9.09-45.75-1.58A102.76 102.76 0 0 0 446 494.71a142.69 142.69 0 0 0-31.27-4.77c-11.06-.34-21.76-3.21-32.8-3.31-6.28-.05-10.39-3.1-13.55-9.21-5-9.68-6.15-19.75-5.66-30.11a296.23 296.23 0 0 0-3.26-59.81c-.74-4.74-1.35-9.05 4.64-10.75a2.5 2.5 0 0 0 1.58-1.26c1.71-6.25 3.62-11.5 12.09-7.54 1.8.85 3.91-2.33 4.84-4.67.74-1.86 2-2.74 4-2.12 1.49.45 1.92 1.57 2.17 3.08 1.47 8.89 5.44 16.63 9.76 24.55 4.7 8.62 7 18.56 10.2 28 .57 1.7.71 3.58 2.88 3.54 2.76 0 3.18-2.38 3.24-4.43.1-3.55-1.63-6.67-3-9.82-1.81-4.1-3.72-8.16-5-10.94-4.55-9.68-9.57-17.68-10.26-27.29-.12-1.67-1.12-3.62.8-4.54.61-.29 2.16 1.25 3.2 2.06 8.47 6.56 14 16.1 22.93 22.23 1.39 1 2.6 2.2 4 3.16.47.32 1.65.43 1.84.16a4.36 4.36 0 0 0 1-2.7c-.41-2.85-2.19-5-4.13-7-4.77-5-9.52-10-14.33-14.91-3.13-3.22-6.14-6.58-9.56-9.46-3.71-3.14-5.43-8.14-2.92-10.85s7 1.28 9.65 3.44c4.24 3.44 7.52 8 11.43 11.92a199 199 0 0 0 26.86 22.09c5.06 3.52 9.76 7.89 10.89 14.46 1.42 8.34 7 14 12 20.13 1 1.2 2.32 1.92 3.56 1.25s1.54-2.18 1.36-3.64c-.39-3.18-2.14-5.81-3.54-8.56-9.25-18.14-22.9-32.68-38.14-45.75-10.23-8.77-18.28-19.78-29.19-27.81a3.29 3.29 0 0 1-.84-2.7c.26-1.65 1.85-2 3.2-1.86 4.77.57 9.42 1.2 13.95 3.36 6.51 3.11 12.78 7 20.06 8.25 1.23.22 3 .76 3.24-1.23a3.18 3.18 0 0 0-1.51-2.34c-11.41-6.8-21.6-16.38-35.41-18.25-8.27-1.11-13.05-7.2-18.85-11.75-3.21-2.52-1.23-6.8 3.48-6.94 13.72-.43 28-4.94 40.59 4.79a8.74 8.74 0 0 0 3.9 1.27c.91.13 2.32.07 2.78-.5 1-1.23.31-2.51-.87-3.48-5.68-4.69-12.25-7.64-19.23-9.81-.91-.29-2.21-.77-2.44-1.46-.64-1.9 1.27-2.22 2.4-2.56 14-4.3 27.59-9.89 43.06-8.26 9.4 1 19.13-1.11 28.71-1.89 7.88-.64 15.84.62 23.66-1.73 12-3.61 22.64-9.92 33.15-16.49 1.73-1.08 3.29-3.16 5.41-2.13 2.46 1.19 2.7 3.75 2.12 6.28-.7 3.06-.33 6.21-.65 9.24-.65 6.08-2.09 11.59-6.78 16.71-9.94 10.83-18.67 22.64-25 36.26-9.12 19.72-8.77 38.94-1.46 59.15 5.57 15.42 15.23 28.36 23.63 41.87 9.52 15.31 14.47 30.94 14 48.58a31.76 31.76 0 0 1-4.88 15.51zM379.65 339.26l.39-.38.15.48zm8.7-20.84c.22-.09.48-.31.61-.25s.54.39.54.6c0 .88-.42 1.05-1.05.44-.15-.16-.07-.54-.1-.79zm14.91-38.11c-.43-1.36 1.26-2.08 4-3.12 8.63-1.05 18.66-3.51 29-2.32 1.66.19 3.79 1.09 3.68 2.91s-3 2.81-4 2.27c-9.93-5.4-19.35.53-29 .93-1.28.02-3.17.91-3.68-.67zm168.79 15.89c.52 1.26.81 2.62 1.21 3.94l.44-.12c.94 3.66 2.41 7.27 2.75 11 1.92 21 7.83 41.24 11.3 61.95 2.61 15.61 4.33 31.36 5.8 47 1.35 14.35-4 28.4-11.12 41.25-2.33 4.22-4.84 8.34-7.42 12.42-.68 1.08-1.91 2.25-3.39 1.4a4.47 4.47 0 0 1-1.53-2.43 7.3 7.3 0 0 1-.29-3.08c2.82-21.86-8.18-39.14-19.26-56.08-7.6-11.62-15.24-23.16-19.46-36.39-5.17-16.21-5.92-32.07 4.59-47.26 8.59-12.43 19.58-22.83 28.15-35.24 2.85-4.14 6.23-3.17 8.23 1.64zM410.26 72.66c7.07.3 13.76-3.7 21.3-3.31 14.39.76 27.73 4.94 40.78 10.45 6.69 2.83 13.33 5.7 20.67 6.41 9.62.94 19 3.1 28.45 5.08 10.12 2.11 20.64 1.63 30.83.71 8.34-.75 13.93 2.21 18.83 8.1 8.88 10.71 14.25 22.43 13.21 37-1.34 18.87-2 37.77-6.82 56.2a42.42 42.42 0 0 1-9.51 18.06 150.12 150.12 0 0 0-14 19.15c-10.49 16.49-25.53 26.39-44 31.85-10.77 3.18-21.28 1.09-31.74-.75-7.9-1.38-15.68-2.14-23.65-1.26-2.39.26-5 .71-7.2.1-12.68-3.5-25.4-.1-38.08-.51-6.44-.21-12.35 2.16-17.52 5.61s-9.94 2-14.94.83c-3-.68-2.74-2.67-.91-4.47a86.14 86.14 0 0 1 9.14-8.39c13.05-9.54 25.74-19.69 41.83-24.07 3.94-1.08 7.55-3.39 11.31-5.15 1.28-.6 2.59-1.43 2-3a2.72 2.72 0 0 0-3.46-1.4c-6.25 2-12.47 4-18.64 6.16-2.59.92-5 2.26-7.54 3.4a136.33 136.33 0 0 0-32.91 21.28c-1.51 1.36-2.54 3.44-4.79 3.74a5.18 5.18 0 0 1-2.82-.59c-1.18-.6-.73-1.75-.48-2.74a2 2 0 0 1 .42-.94c9.48-9.84 14.69-23.64 27.89-30.06a28.54 28.54 0 0 0 5.13-3.5c1.69-1.33 3.35-3.28 2.11-5.26-.92-1.47-3.2-.59-4.79.1-10.24 4.44-19.78 10.46-25.32 20.07-3.69 6.39-9.63 10.66-12.95 17.07-.42.81-1.45 1.86-2.41 1.08-.53-.43-.52-1.82-.39-2.73 3.13-22.34 14.53-39.8 31.43-54.26a88 88 0 0 1 33.42-18c4.61-1.32 9-3.56 13.43-5.32 2-.79 4.18-1.57 3.73-4.17-.51-2.91-3.14-2.37-5-2a98.19 98.19 0 0 0-14 3.33 111 111 0 0 0-46.16 30.38c-10.28 11.28-18.84 23.43-23.19 38.15-1.27 4.3-3.05 5.78-7.31 4.12a7.51 7.51 0 0 0-4.05-.42c-5.09 1.07-5.27-2.16-4.59-5.44 1.94-9.46 4.4-18.82 6.24-28.3 2-10.3 7.23-19.39 10.44-29.21.92-2.82 3.16-6.91-.25-8.24-4.58-1.77-5.21 3.21-6.1 6.32a40.91 40.91 0 0 1-6.16 13c-3.13 4.31-4.29 9.37-5.48 14.42-2.05 8.73-4.09 17.45-6.19 26.17-.3 1.25-.27 3.16-2 3.19-2.46.05-2.09-2.28-2.31-3.79-1.71-12-2.12-24 1.71-35.82 3.71-11.49 7.35-23 10.45-34.7 3.24-12.26 8.53-23 19.29-30.35a11.25 11.25 0 0 0 3-2.84c.48-.71.28-1.88.39-2.84-1 .14-2.16 0-2.86.46-9.88 7.21-19 15-21.67 27.9-.77 3.71-1.86 7.36-2.8 11-3.23 12.7-7.23 25.18-10.63 37.81-3.06 11.37-3.93 23.19.75 34.62.93 2.29 1.7 4.54.88 7-.53 1.62-.82 3.58-2.61 4.23-2.11.77-2.61-1.69-3.93-2.41-10.1-5.5-8.05-15.76-8.68-24.22-.65-8.82 1.06-17.84.19-26.82-.48-5 2.27-9.31 3.73-13.89a3.09 3.09 0 0 0-.54-2.76 2.25 2.25 0 0 0-3.44 1c-3.74 7.38-8 14.74-6.72 23.43 1.06 7.3 1.17 14.39-1.3 21.41-.53 1.51.38 4-1.68 4.36-2.68.46-3-2.4-3.76-4.11a135.69 135.69 0 0 1-11-40.74c-1.69-15.92 2.93-29.93 11-43.24 1.89-3.11 4.94-4.77 7.45-7.07 7.15-6.56 12.38-14.76 19.16-21.67s14.54-12.35 22.7-17.39c20.25-12.5 42.22-17.63 65.99-16.6zm-276.2 48.27c-4.08-13.87-6.26-28.2-4.57-42.78a37.5 37.5 0 0 1 5.3-15.57c3.08-5 6.23-10 7.5-15.82.58-2.61 2.11-4.11 3.91-5.79 2.51-2.34 5.18-4.75 6.92-7.64 6.28-10.51 16.29-14 27.52-16.25 22.35-4.46 44-1.56 65 6.22 10.42 3.85 21.24 6 31.8 9.21a17.4 17.4 0 0 0 5.09.66c27-.16 50.15 10.62 71.67 25.75 5.44 3.81 5.41 6.06-.3 10a61.49 61.49 0 0 1-10.9 5.9c-15.35 6.55-26.42 18.18-36.93 30.48-2.8 3.29-4.49 7.69-8.17.37-1.81-3.61-7.32-1.81-8.56 2.35-.74 2.46.06 4.84.62 7.13.78 3.15 1.19 6.26-.83 8.93-2.44 3.23-4.95 8.28-8 8.72-4 .57-3.93-5.5-5.5-8.66-2.45-4.93-4.08-10.25-6.18-15.35a27.15 27.15 0 0 0-3.28-6.36c-1.28-1.65-3.41-2.57-5.44-1a3.78 3.78 0 0 0-1 4.7c3 7 6.08 13.85 9.11 20.78 1.51 3.46 3.55 6.79 3.33 10.76a9.29 9.29 0 0 1-1 2.69 8.53 8.53 0 0 1-2.63-1.31c-3.82-4-7.55-8-11.26-12.11-1.79-2-3.85-3.37-6.19-1.33s-1.2 4.38.43 6.38c2.18 2.67 4.46 5.25 6.64 7.92 3.5 4.28 6.95 8.63 8.94 13.85.78 2 .64 4.35-2 5a4.43 4.43 0 0 1-5.22-2.32c-.57-1.17-.21-2.77-.73-4-1.65-3.78-2.82-8-6.22-10.61-7.32-5.58-14.85-10.89-22.35-16.22-1.07-.76-2.54-1.27-3.69.1s-.4 2.37.27 3.66c3.67 7.15 8.62 13 15.89 16.73a26.54 26.54 0 0 1 5.87 4.15c1.44 1.34 1.43 3-.67 4.09-6.56 3.45-15 1.75-18.67-4.79-6.71-11.84-18.6-18.25-27.65-27.6-1-1-2.3-2-3.53-1a3.24 3.24 0 0 0-.58 4.63c3.39 4.76 6.69 9.5 11.51 13.14 5.39 4.08 11.45 7.53 15.16 13.59.84 1.38 2.92 2.46 1.41 4.21a4 4 0 0 1-4.86.53c-5.28-3.19-11-6.06-15.37-10.23-6.41-6.07-14.37-2.34-21.23-4.71-1-.36-2 .67-2.16 1.74a4.76 4.76 0 0 0 .67 2.83c1 1.56 2.74 1.89 4.46 2.25a83.38 83.38 0 0 1 9 2.21c3.54 1.17 8.45 1.94 8.8 6.07.38 4.46-5.11 3.44-7.83 5.13a40.82 40.82 0 0 1-4.69 2.18.8.8 0 0 1-.08-.16c-10.09 5.27-20.09 10.71-30.29 15.76-7 3.47-8 2.92-10.36-4.17-6.03-18.34-12.46-36.54-17.9-55.02zM15 365.45a158.32 158.32 0 0 1 16.46-22.57 39.79 39.79 0 0 0 5-6.5c7.29-12.51 7.43-12.5 5.3-27-2-13.8-.09-27.47.95-41.17.5-6.7 5.44-11 9.72-15.44a64.69 64.69 0 0 1 15.78-11.65c11.77-6.41 23.8-12.36 35.6-18.72 13.72-7.4 27.19-15.11 40.87-22.4 16.38-8.78 32.9-17.31 49.36-26 15-7.86 31.4-8.15 47.48-7.68 15.45.45 29.16 8.23 32.67 25.94.66 3.35 2.13 6.54 3.28 9.78.56 1.58 1.73 3.3-.2 4.55-1.71 1.1-3.4 0-4.68-1.09-7.53-6.22-16.69-9.63-25-14.5-3.54-2.08-7.38-3.95-11.75-3.28a3.39 3.39 0 0 0-3.08 2.4 2.91 2.91 0 0 0 1.46 3.5c3.36 1.75 6.87 3.23 10.19 5.06 11.13 6.12 22.59 11.81 30.34 22.48.57.78 1.47 2 1.23 2.56-.71 1.73-2.25.92-3.41.4-4.4-2-8.75-4.11-13.15-6.08-2.34-1-5-1.49-6.4 1.12-1.27 2.28.65 3.6 2.43 4.9 4.07 3 7.75 6 13.07 7.39 7.34 1.88 13.38 7 19.6 11.37 1.42 1 3.06 2.55 2.21 4.22-1.14 2.27-3.62 1.34-5.44.74a49.49 49.49 0 0 1-7.59-3.3c-10.95-5.77-22.67-8.14-34.94-8.23-2.64 0-6.43-1.12-6.78 2.61-.33 3.45 2.66 5.24 6.23 5.48 1.71.11 3.43.89 5.1.77 11.39-.81 20 6.8 30.06 9.93 2.15.66 3.88 2.78 5.72 4.32 2.41 2 1.2 4.48.51 6.69-.87 2.75-3.2 2.16-5.16 1.58-4.45-1.31-8.51-1.45-12.9.95-2.1 1.15-5.57.68-8.14-.05-12.69-3.62-25.68-3.94-38.72-4 1.57 5.52 4.81 7.7 11.05 8.12 12.63.86 25.38 1.88 37.49 6.23 1.62.58 3.44.92 4.78 1.9 1.77 1.29 5.32 1.88 4.22 4.89-.77 2.12-3.64 1-5.57.83-14.48-1.48-28.84-1.23-43.16 2-3.83.85-7.09 2.58-10.53 4.1-2.83 1.27-4.61 3.63-3.2 6.63s4.06 1.83 6.33.85c7.46-3.22 15.22-4 23.3-3.63 3.86.19 7.68.41 11.08 2.05 4.42 2.14 8.38 2.74 12.49-.55a5.21 5.21 0 0 1 3.86-1c3.47.77 8.76-.14 9.17 4.66.37 4.21-4.34 4.7-7.66 5.31-14.23 2.64-29 3.48-42.49 8.7a176.59 176.59 0 0 1-47 11c-2.33.23-4.58 1.42-6.81 2.33a2 2 0 0 0-1 1.61 1.92 1.92 0 0 0 2.16 1.69c4.38-.9 8.71-2 13.09-3 6-1.24 11.91-1.72 17.6 1.08-8.53 2-17.08 3.92-25.56 6.07-5 1.27-10.24 2.34-14.77 4.66a30.92 30.92 0 0 1-16 3.24 41.08 41.08 0 0 0-7.19.25 3.28 3.28 0 0 0-2.12 2 1.8 1.8 0 0 0 1.59 2.21c9.05-.13 18.56 2.95 26.75-3.41 4.67-3.62 10.28-3.89 15.68-4.43 6.92-.7 13.59-2.39 20.33-3.86 4.39-1 8.78-2.12 10.57-7.19 1.06-3 4-3.74 6.65-4.29 10.46-2.14 20.92-4.35 31.46-6 5.36-.86 10.84-.75 14.51 4.72 1 1.49 4.29 1.48 3.43 4.26-.59 1.91-2.82 1.63-4.45 2-16.43 3.33-31.34 10.57-46.26 17.81a5.41 5.41 0 0 0-.94.44c-2.3 1.72-7.09 2.83-5.13 6.27 2.11 3.72 5.48.12 7.84-1.37 5.88-3.74 12.47-5.91 18.65-9a15 15 0 0 1 8.08-1.29c.84.07 1.61 1 2.41 1.55a6.47 6.47 0 0 1-1.36 1.44c-2.12 1.16-4.37 2.1-6.45 3.32a22.25 22.25 0 0 0-4.94 3.63c-2.12 2.24-2.61 4.83-.19 7.33 2.26 2.33 4.38 1.05 6.48-.28q12.21-7.74 24.44-15.49c2-1.3 4.06-2.64 6.21-3.73 1.61-.82 3.6-1 4.55.85 2 3.74 5.9 4.55 9 6.64 5.72 3.85 5.67 6.92-.1 10.58-7.9 5-14.37 11.71-21.51 17.56-12.41 10.18-25.6 19.12-42.86 21.11-22.55 2.61-44.85 7.48-67.24 11.51a49.26 49.26 0 0 1-11.31.44c-6.88-.32-13.81-.74-20.62 1a17.87 17.87 0 0 1-9.24-.21c-25.1-6.84-51-8-76.67-11-12.72-1.47-20.69-9-27.36-18.37-3.37-4.99-1.93-10.86 1.16-15.85zm194.76-34.89c-.34.17-.94-.17-1.47-.38.41-.36.82-.78 1.22-.77.82.01.99.79.26 1.15z" fill="#a57b00"/><path d="M183.78 243.11a58.42 58.42 0 0 0 8.14-1.15c10.72-2.49 21.41-5.18 32.57-3.67a8.9 8.9 0 0 0 5.91-1.29 3.33 3.33 0 0 0 1.76-3.36c-.7-2-2.35-2.54-4.08-2.58-4.8-.13-9.52-.92-14.39-.59-10.32.69-20.27 3.57-30.47 4.9-2.42.31-4.91 1.45-4.19 4.66.51 2.33 2.48 3.28 4.75 3.08zM190.64 376.69c1.69-.24 3.45-.11 5.11-.47 6.24-1.33 12.32-4 18.88-.93 1.89.9 4.18-.37 5.72-1.68 3.23-2.78 6.63-4.86 10.55-4.58 2.69-1.17 5.64-2.08 4.92-5-.9-3.68-4.15-2.67-6.81-2.09a12.72 12.72 0 0 0-3.91 1.26c-7.3 4.51-15.54 5-23.73 5.92-3.74.4-7.46 1.05-11.17 1.7-2 .34-4.54.53-4.27 3.28.26 2.54 2.42 2.9 4.71 2.59zM181.56 303.23c7.22-.27 14.17-2.16 21.3-3.47a10.32 10.32 0 0 0 2.56-1.54c1.34-1.44 3.44-2.9 2.61-5.1-.74-2-3.06-1.11-4.5-.87q-11.64 1.92-23.18 4.36c-1.84.39-4.33 1.17-3.7 3.9.55 2.37 2.75 2.81 4.91 2.72zM190.94 263.48c-2.31.65-4.82 1.91-3.89 4.9.71 2.3 3.37 2.61 5.21 2 5.72-2 11.41-1.12 17.17-.71 3.95.29 7.26-1 8.67-5.1-4.34-.51-8.69-.93-13-1.68a31.82 31.82 0 0 0-14.16.59zM218.22 264.54a2.18 2.18 0 0 0 0-.28c0 .1-.08.17-.11.27zM126.56 311.51c9-1.46 18.65 2.24 28.2-3.92.47-.17 2.09-.73 3.69-1.32 1.35-.49 2.75-1.39 2.38-2.84s-2.09-1.6-3.41-1a64.87 64.87 0 0 1-29.07 5.57 4.75 4.75 0 0 0-2 .55c-.87.39-1.93.87-1.46 2.06a2 2 0 0 0 1.67.9zM219.08 218.72c2-1.23 3.16-3.7.63-4.77-4.31-1.81-9.06-2.59-12.71-3.55-3.26 1-4.1 4.5-2.48 6.25 2.26 2.44 11.64 3.9 14.56 2.07zM410.53 245.8c-3.15 2.12-6.63 3.45-7.93 7.39 3.69 1 5.94-2.18 9.49-3.09 10.25-6.22 22-5.59 33.41-3.52 10 1.83 18-2.83 26.66-5.38 1.09-.32 2.57-1.44 1.73-3.13a3.3 3.3 0 0 0-3.47-1.67 39.81 39.81 0 0 0-6 1.19c-6.67 1.78-13.27 2.95-20.32 2.21-11.67-1.22-23.16-1.01-33.57 6zM470.52 159.68a66.11 66.11 0 0 0 9.13-1.61 14.66 14.66 0 0 0 7.35-3.57 3.65 3.65 0 0 0 .93-2.67 1.93 1.93 0 0 0-2.32-1.45c-4.7.7-9.63-.06-13.45 1.78-1.55.89-2.46 1.38-3.33 1.93-2.3 1.44-6.06 2.87-5.05 5.7 1.37 3.89 4.43.07 6.74-.11zM376.77 149.38c4.37-2.58 8.76-5.15 13.12-7.75 1.26-.75 2.18-2 1.66-3.36a2.91 2.91 0 0 0-4.25-1.41 33.46 33.46 0 0 0-12.95 11.06 2 2 0 0 0-.05 1.87c.78.8 1.7.28 2.47-.41zM436 194.19c1.54 2.87 4.15-.18 6.29-.51a16 16 0 0 0 1.65-.51 11 11 0 0 0 2.15-1c1.36-.92 3.28-1.85 2.34-3.9s-2.92-1.31-4.54-1.1a13.75 13.75 0 0 0-4 1c-2.48 1.19-5.51 2.94-3.89 6.02zM370.74 189.13c3.19-6.08 8.66-11 9.55-18.26-4.29 5.5-8.95 10.84-9.55 18.26zM385.81 163.86c-.18 0-.33.14-.52.18l.35.16zM391.86 158.59c0-.06-.45-.56-.63-.53-3.26.6-4.21 3.32-5.42 5.8a10 10 0 0 0 6.05-5.27zM403.84 141.82a6.63 6.63 0 0 0 1.46-2 .72.72 0 0 0-1.2-.75 7.79 7.79 0 0 0-1.91 2.33c-.29.6.35.87 1.65.42z" fill="#a57b00"/><path d="M385.29 164a4.38 4.38 0 0 1 0 .63l.38-.46zM385.27 164.67c-1.53 1.89-3.07 3.77-4.56 5.66 3.34-.52 4.66-2.55 4.56-5.66zM380.71 170.33c-.11 0-.18.07-.3.09 0 .16-.07.31-.08.47l.31-.41zM391.14 151.61a12.11 12.11 0 0 0 1.71-.38c.1 0 .07-.48.1-.74a12.11 12.11 0 0 0-1.71.38c-.11.03-.07.48-.1.74zM397.96 145.9l-.68.53.82.08-.14-.61zM370.7 189.43v-.3c-.08.15-.17.28-.24.43l-.6.38.58-.34zM312.32 445.09c-1.9-.25-2.9 1.47-3.48 3.2-2.38 7.19-4.81 14.36-7.09 21.58a7.15 7.15 0 0 0 0 4c.6 2 2.15 2.47 4.54 1.36a12 12 0 0 0 2.15-2.88c2.4-6.07 4.73-12.17 6.83-18.35a11.73 11.73 0 0 0 .07-5.08c-.27-1.78-1.27-3.6-3.02-3.83zM237.66 411.86c-2.44 1.67-5.15 3.06-7.25 5.09-2.41 2.32-4.78 4.87-5.65 8.3a2.7 2.7 0 0 0 .27 1.94c.25.37 1.07.35 1.8.55 2.06-3 4.57-5.89 6.12-9.2 1.21-2.6 5.25-3.04 4.71-6.68zM337.48 502.41c-.91.06-2.08 1.68-2.47 2.83a12.09 12.09 0 0 0-.48 4.94 2.79 2.79 0 0 0 5.52.14 18.82 18.82 0 0 0-.47-4.57c-.73-1.44-.58-3.45-2.1-3.34zM226.21 478.06a3 3 0 0 0-2 3.27c.08 1.15 1 1.59 2.14 1.43 1.46-.52 2.32-1.46 1.83-3.08-.24-.93-.82-2.02-1.97-1.62zM225.22 453.69a12.13 12.13 0 0 0 .92-2.84c-.8 0-1.56-.28-2 0a1.93 1.93 0 0 0-.57 2.68.93.93 0 0 0 1.65.16zM493.2 291.73c-1.06-.87-2.51-1.37-3.74-.47-1.93 1.4-.43 3 .06 5 3.56 6.27 9.36 10.18 16.45 12.34a3 3 0 0 0 2.65-.73 2.8 2.8 0 0 0-.57-3.7c-4.89-4.23-9.86-8.36-14.85-12.44zM474.15 306c-.24-.86-1.07-2.17-1.71-2.22-6.05-.41-12.13-2-18.3-.2-.73.68-1.85 1.25-2.11 2.08-.49 1.58.88 2.27 2.1 2.88 5.93 3 12 1 18.05.51a2.38 2.38 0 0 0 1.97-3.05zM475.86 350.2c-1.61-1.65-3.44-4.46-5.81-2.85-2.8 1.91-1.42 4.93.36 7.16a23.62 23.62 0 0 0 4.41 4.12 3.21 3.21 0 0 0 3.81.05c1.88-1.32 1-2.93.24-5-.8-.91-1.87-2.27-3.01-3.48zM445.63 425.83c-1.39-1.12-.77-4.86-3.94-6.17-1.38 3.63-.41 7.13.57 10.63a2 2 0 0 0 .57.83c1.62 1.6 3.25 4.3 5.77 2.36 2.34-1.79-.33-3.43-1.25-5-.35-.6-.74-1.15-1.72-2.65zM378.43 391l.03-.78-.62.26.59.52zM379.71 399.37l.63-.16-.53-.64-.1.8zM229.16 106.19c1.29.59 2.68 1.1 3.6-.1.44-.58-.13-1.91-.25-3-3.75-4.74-6.49-10.29-11.17-14.32-1.27-1.1-2.94-1.86-4.45-.18a3.12 3.12 0 0 0-.65 3.76c3.56 5.28 6.76 10.98 12.92 13.84zM177.94 98.71c.93 2.5 2.84 4.47 5.45 3.31 3.24-1.43 1.09-4 .48-5.9-.93-1.76-1.69-3.31-2.56-4.79s-1.6-3.38-3.74-2.17a3.34 3.34 0 0 0-1.37 3.65 46.91 46.91 0 0 0 1.74 5.9z" fill="#a57b00"/></svg>