<svg id="7ac5aa67-6157-41d5-8aab-5f55c3e82ff9" data-name="Layer 1" xmlns="http://www.w3.org/2000/svg" viewBox="0 0 17.5 17.5"><title>instagram</title><path d="M17.46,5.12c0,.73,0,1.94,0,3.63s0,2.91-.06,3.65a7.6,7.6,0,0,1-.33,1.94,4.53,4.53,0,0,1-2.77,2.77,7.6,7.6,0,0,1-1.94.33c-.74,0-2,.06-3.65.06s-2.91,0-3.65-.06a6.43,6.43,0,0,1-1.94-.37,4.26,4.26,0,0,1-1.7-1,4.59,4.59,0,0,1-1.07-1.7A7.6,7.6,0,0,1,.06,12.4c0-.74-.06-2-.06-3.65S0,5.84.06,5.1A7.6,7.6,0,0,1,.39,3.16,4.53,4.53,0,0,1,3.16.39,7.6,7.6,0,0,1,5.1.06C5.84,0,7.06,0,8.75,0s2.91,0,3.65.06a7.6,7.6,0,0,1,1.94.33,4.53,4.53,0,0,1,2.77,2.77A8,8,0,0,1,17.46,5.12Zm-1.87,8.79a8.53,8.53,0,0,0,.31-2.11c0-.58,0-1.38,0-2.42V8.12c0-1.06,0-1.87,0-2.42a8.06,8.06,0,0,0-.31-2.11,2.9,2.9,0,0,0-1.68-1.68A8.06,8.06,0,0,0,11.8,1.6c-.58,0-1.38,0-2.42,0H8.12c-1,0-1.84,0-2.42,0a8.53,8.53,0,0,0-2.11.31A2.9,2.9,0,0,0,1.91,3.59,8.06,8.06,0,0,0,1.6,5.7c0,.58,0,1.38,0,2.42V9.38c0,1,0,1.84,0,2.42a8.53,8.53,0,0,0,.31,2.11,3,3,0,0,0,1.68,1.68,8.53,8.53,0,0,0,2.11.31c.58,0,1.38,0,2.42,0H9.38c1.06,0,1.87,0,2.42,0a8.06,8.06,0,0,0,2.11-.31A3,3,0,0,0,15.59,13.91ZM8.75,4.26a4.41,4.41,0,0,1,2.25.6A4.6,4.6,0,0,1,12.64,6.5a4.52,4.52,0,0,1,0,4.5A4.6,4.6,0,0,1,11,12.64a4.52,4.52,0,0,1-4.5,0A4.6,4.6,0,0,1,4.86,11a4.52,4.52,0,0,1,0-4.5A4.6,4.6,0,0,1,6.5,4.86,4.41,4.41,0,0,1,8.75,4.26Zm0,7.42a2.94,2.94,0,0,0,2.93-2.93A2.94,2.94,0,0,0,8.75,5.82,2.94,2.94,0,0,0,5.82,8.75a2.94,2.94,0,0,0,2.93,2.93Zm5.74-7.62a1.06,1.06,0,0,0-1.05-1,1,1,0,0,0-.74.31,1,1,0,0,0-.32.74,1,1,0,0,0,.32.74,1,1,0,0,0,.74.32,1,1,0,0,0,.72-.32A1.13,1.13,0,0,0,14.49,4.06Z" style="fill:#a67d25"/></svg>