<svg id="2566a627-380f-4105-bd59-17def89b4442" data-name="Layer 1" xmlns="http://www.w3.org/2000/svg" viewBox="0 0 544.14 103.4"><title>logo</title><path d="M5.76,46.59H0V.82H5.69l17,34.31L39.79.82h5.63V46.59H39.66V13.1l-17,34L5.76,13Z" style="fill:#a67d25"/><path d="M99.84,7.89c3.71,4.32,5.36,9.4,5.36,16.26,0,7.14-2.75,13.52-7.76,17.77a22.36,22.36,0,0,1-14.61,5.49,22.86,22.86,0,0,1-17.7-8.58A23.58,23.58,0,0,1,60.32,24C60.32,10.29,70,0,83,0A22.49,22.49,0,0,1,99.84,7.89ZM66.22,23.74c0,10.63,7,18.39,16.47,18.39A16.37,16.37,0,0,0,94.9,36.64c2.68-3,4.39-7.89,4.39-12.56,0-6.11-1.64-10.56-5.21-14A16.51,16.51,0,0,0,82.83,5.35C73.29,5.35,66.22,13.17,66.22,23.74Z" style="fill:#a67d25"/><path d="M148,18.52A16.15,16.15,0,0,1,131.83,35c-9.4,0-16-6.86-16-16.6S122.43,1.85,132,1.85C141.37,1.85,148,8.78,148,18.52Zm-26.83-.07c0,7,4.33,11.74,10.78,11.74,6.24,0,10.7-4.88,10.7-11.74,0-7.06-4.25-11.8-10.63-11.8S121.19,11.39,121.19,18.45Z" style="fill:#a67d25"/><path d="M168.41,46.59h-5.76V.82h5.28l24.43,34.45V.82h5.76V46.59H193l-24.63-35Z" style="fill:#a67d25"/><path d="M218.1,34.31c.27,5.21,3.09,8,8.09,8,5.15,0,8.79-3.16,8.79-7.76,0-4-2.06-5.83-9.27-8.23-5.42-1.86-7.2-2.75-9.26-4.6A11.38,11.38,0,0,1,212.88,13c0-7.76,5.56-13,13.66-13s13.38,5.14,13.58,13.1h-5.76a8.73,8.73,0,0,0-1.1-4.73,8,8,0,0,0-6.79-3.23c-4.53,0-7.75,3.09-7.75,7.48a6.37,6.37,0,0,0,2.6,5.29c1.45,1,2.68,1.57,7.35,3.22,4.87,1.72,7.2,2.95,9.05,4.94a11.79,11.79,0,0,1,3.09,8.1c0,7.89-5.83,13.24-14.41,13.24-5.83,0-9.81-2.06-12.21-6.17a11.29,11.29,0,0,1-1.58-6v-1Z" style="fill:#a67d25"/><path d="M261.26,46.59H255.5V.82h5.76V21.41h22.3V.82h5.77V46.59h-5.77V26.35h-22.3Z" style="fill:#a67d25"/><path d="M312.8,46.59H307V.82h5.76Z" style="fill:#a67d25"/><path d="M336.14,46.59h-5.76V.82h5.28l24.43,34.45V.82h5.76V46.59h-5.08l-24.63-35Z" style="fill:#a67d25"/><path d="M388.64,21.06h18.05V26H388.64V41.65h18.05v4.94H382.88V.82h23.81V5.76H388.64Z" style="fill:#a67d25"/><path d="M462.55,46.59h-5.77l-4.6-6.25c-5.42,5.35-8.71,7.14-13.1,7.14a12.84,12.84,0,0,1-12.9-13c0-5.62,2.54-8.92,10.91-14.06-3.36-4.67-4.12-6.25-4.12-8.92,0-4.87,4.12-8.58,9.4-8.58s9.13,3.57,9.13,8.37A9.73,9.73,0,0,1,448.55,18a26,26,0,0,1-4.6,3.51l8.58,11.8c3-3,3.43-3.43,6.52-6.73l3.5,3.3c-3.44,3.49-3.85,3.91-7.21,7.27ZM439.77,24.15A42,42,0,0,0,434.55,28a8.77,8.77,0,0,0-3.16,6.52,8.08,8.08,0,0,0,7.9,8.1c3.29,0,5.21-1.24,9.81-6.11Zm6.72-12.83a3.8,3.8,0,0,0-4.05-4,4,4,0,0,0-4.32,4.12c0,2,.27,2.61,3.16,6.38C445.39,15.23,446.49,13.86,446.49,11.32Z" style="fill:#a67d25"/><path d="M503,30.32A16.2,16.2,0,0,1,491.31,35c-9.06,0-15.51-6.86-15.51-16.47,0-9.81,6.52-16.67,15.78-16.67a15.67,15.67,0,0,1,11.53,4.73L499.75,10a11.63,11.63,0,0,0-8-3.3c-6.24,0-10.57,4.81-10.57,11.67s4.33,11.87,10.5,11.87a11.05,11.05,0,0,0,8.1-3.44Z" style="fill:#a67d25"/><path d="M544.14,18.52A16.15,16.15,0,0,1,528,35c-9.4,0-16-6.86-16-16.6s6.59-16.54,16.2-16.54C537.49,1.85,544.14,8.78,544.14,18.52Zm-26.82-.07c0,7,4.32,11.74,10.77,11.74,6.24,0,10.7-4.88,10.7-11.74,0-7.06-4.25-11.8-10.63-11.8S517.32,11.39,517.32,18.45Z" style="fill:#a67d25"/><rect x="479.32" y="46.4" width="62.06" height="3.43" style="fill:#a67d25"/><path d="M185.7,90.19c0-1.83-.12-1.75-1.53-1.85l-.85,0a2.1,2.1,0,0,1,.1-1.33s1.65.12,2.86.12,3.4-.12,3.4-.12a2,2,0,0,1,.1,1.33l-.85,0c-1.41.1-1.53,0-1.53,1.85v12.7a1.64,1.64,0,0,1-1.12.51,39.11,39.11,0,0,0-3.49-4.47l-8.41-8.52-.49-.91.12,1.32V99.9c0,1.83.13,1.75,1.54,1.85l.85,0a2.1,2.1,0,0,1-.1,1.33s-1.63-.12-2.84-.12-3.4.12-3.4.12a2.1,2.1,0,0,1-.1-1.33l.85,0c1.41-.1,1.53,0,1.53-1.85V90.19c0-1.83-.12-1.75-1.53-1.85l-.85,0a2.1,2.1,0,0,1,.1-1.33s2.18.12,3.4.12c.77,0,1.89-.08,1.89-.08a5.7,5.7,0,0,0,1.51,2.34l8.43,9.11.53,1-.12-1.39Z" style="fill:#a67d25"/><path d="M212.84,98.28h-7.55l-.93,2.06c-.26.68-.43,1.39.93,1.43l.68,0a2.1,2.1,0,0,1-.1,1.33s-1.39-.12-2.6-.12-2.82.12-2.82.12a2,2,0,0,1-.09-1.33l.46,0c1.38-.07,1.65-.8,2.35-2.21s4.55-10.1,4.55-10.1a4,4,0,0,0,.41-2,3.16,3.16,0,0,0,1.46-.8.69.69,0,0,1,.53.27l5.74,12.33c.65,1.39,1.26,2.44,2.64,2.48l.64,0a2.1,2.1,0,0,1-.1,1.33s-2-.12-3.18-.12-3.31.12-3.31.12a2.1,2.1,0,0,1-.1-1.33l.78,0c1.1,0,.76-1.11.66-1.33ZM206,96.62l-.42.39.54-.1h5.8l.61.2-.48-.49-2.87-6-.27-1.21-.27,1.21Z" style="fill:#a67d25"/><path d="M231,103.13a2.1,2.1,0,0,1-.1-1.33l.85,0c1.41-.1,1.53,0,1.53-1.85V90.19c0-1.83-.12-1.75-1.53-1.85l-.85,0A2.1,2.1,0,0,1,231,87s2.19.12,3.4.12,3.4-.12,3.4-.12a2.1,2.1,0,0,1,.1,1.33l-.85,0c-1.41.1-1.53,0-1.53,1.85V99.9c0,1.83.12,1.75,1.53,1.85l.85,0a2.1,2.1,0,0,1-.1,1.33s-2.18-.12-3.4-.12S231,103.13,231,103.13Z" style="fill:#a67d25"/><path d="M256.76,100.32c0,.65.07,1,.34,1.14a6.9,6.9,0,0,0,2.36.24h1.79c2.31,0,2.9-.1,3.33-.34s.83-.68,1.34-1.85a2.65,2.65,0,0,1,1.29.35,17.81,17.81,0,0,1-1.15,3.27c-.67,0-1.7-.07-2.84-.07l-7.58,0c-1.21,0-3.4.12-3.4.12a2.1,2.1,0,0,1-.1-1.33l.85,0c1.41-.1,1.54,0,1.54-1.85V90.19c0-1.83-.13-1.75-1.54-1.85l-.85,0a2.1,2.1,0,0,1,.1-1.33s2.19.12,3.4.12S259,87,259,87a2.1,2.1,0,0,1,.1,1.33l-.85,0c-1.41.1-1.53,0-1.53,1.85Z" style="fill:#a67d25"/><path d="M295.77,103.13a2,2,0,0,1-.09-1.33l.85,0c1.4-.1,1.53,0,1.53-1.85V90.19c0-1.83-.13-1.75-1.53-1.85l-.85,0a2,2,0,0,1,.09-1.33s2.19.12,3.4.12c.37,0,1.58-.12,2.31-.12a9.13,9.13,0,0,1,4.67.94A3.4,3.4,0,0,1,308.21,91a3.2,3.2,0,0,1-2.43,3.48c-.17,0-.87.12-1.07.17.17,0,.83.09,1,.14,1.66.44,3.89,1.46,3.89,4.06a3.45,3.45,0,0,1-2.16,3.26,10.43,10.43,0,0,1-4.67,1s-2.4-.12-3.62-.12S295.77,103.13,295.77,103.13Zm4.52-9.42-.07.56.56-.08H302a4.16,4.16,0,0,0,2.55-.63,2.53,2.53,0,0,0,1.28-2.48c0-1.92-1.31-2.77-3.3-2.77a7.29,7.29,0,0,0-1.92.2c-.29.17-.34.46-.34,1.31Zm2.62,8.06c2.26,0,4.33-1.09,4.33-3.15,0-2.82-3.35-3.26-4.35-3.26h-2.11l-.56-.07.07.56v4.42c0,.82,0,1.12.34,1.28a6.91,6.91,0,0,0,1.92.22Z" style="fill:#a67d25"/><path d="M333.83,98.28h-7.56l-.92,2.06c-.27.68-.44,1.39.92,1.43l.68,0a2.1,2.1,0,0,1-.1,1.33s-1.38-.12-2.6-.12-2.81.12-2.81.12a2.1,2.1,0,0,1-.1-1.33l.46,0c1.38-.07,1.65-.8,2.36-2.21s4.54-10.1,4.54-10.1a4,4,0,0,0,.41-2,3.16,3.16,0,0,0,1.46-.8.73.73,0,0,1,.54.27l5.73,12.33c.65,1.39,1.26,2.44,2.65,2.48l.63,0a2.1,2.1,0,0,1-.1,1.33s-2-.12-3.18-.12-3.31.12-3.31.12a2.1,2.1,0,0,1-.09-1.33l.78,0c1.09,0,.75-1.11.65-1.33ZM327,96.62l-.41.39.53-.1h5.81l.6.2-.48-.49-2.87-6-.26-1.21-.27,1.21Z" style="fill:#a67d25"/><path d="M355.31,99.9c0,1.83.12,1.75,1.53,1.85l.85,0a2.1,2.1,0,0,1-.1,1.33s-2.19-.12-3.4-.12-3.4.12-3.4.12a2.1,2.1,0,0,1-.1-1.33l.85,0c1.41-.1,1.53,0,1.53-1.85V90.19c0-1.83-.12-1.75-1.53-1.85l-.85,0a2.1,2.1,0,0,1,.1-1.33s2.19.12,3.4.12c.41,0,2.09-.12,2.09-.12a10.34,10.34,0,0,1,5.08,1,4.1,4.1,0,0,1,2.16,3.38,4.36,4.36,0,0,1-2.63,3.84,4.65,4.65,0,0,1-1.19.41,4.58,4.58,0,0,1-.63.1,10.09,10.09,0,0,1,1.46,1.19c1.39,1.48,2.79,4.23,4.57,4.74a15.46,15.46,0,0,0,2.31.14l.55,0a1.93,1.93,0,0,1-.09,1.27c-.54,0-1.78.31-2.87.31-3.45,0-4.37-3.06-6.27-5.42a7.21,7.21,0,0,0-3.13-2.26c-.08,0-.22-.16-.24-.09a2.85,2.85,0,0,0-.05.77Zm5.85-8.45c0-1.68-1.26-3.14-3.57-3.14a7.31,7.31,0,0,0-1.92.22c-.31.15-.36.44-.36,1.29V93.9l-.13.51a1,1,0,0,0,.3.12,5.1,5.1,0,0,0,1.72.25,4.61,4.61,0,0,0,2.67-.63A2.79,2.79,0,0,0,361.16,91.45Z" style="fill:#a67d25"/></svg>