<svg data-name="Layer 1" xmlns="http://www.w3.org/2000/svg" viewBox="0 0 17.5 17.5"><path d="M17.46 5.12v3.63c0 1.69 0 2.91-.06 3.65a7.6 7.6 0 0 1-.33 1.94 4.53 4.53 0 0 1-2.77 2.77 7.6 7.6 0 0 1-1.94.33c-.74 0-2 .06-3.65.06s-2.91 0-3.65-.06a6.43 6.43 0 0 1-1.94-.37 4.26 4.26 0 0 1-1.7-1 4.59 4.59 0 0 1-1.07-1.7 7.6 7.6 0 0 1-.29-1.97c0-.74-.06-2-.06-3.65S0 5.84.06 5.1a7.6 7.6 0 0 1 .33-1.94A4.53 4.53 0 0 1 3.16.39 7.6 7.6 0 0 1 5.1.06C5.84 0 7.06 0 8.75 0s2.91 0 3.65.06a7.6 7.6 0 0 1 1.94.33 4.53 4.53 0 0 1 2.77 2.77 8 8 0 0 1 .35 1.96zm-1.87 8.79a8.53 8.53 0 0 0 .31-2.11V8.12 5.7a8.06 8.06 0 0 0-.31-2.11 2.9 2.9 0 0 0-1.68-1.68 8.06 8.06 0 0 0-2.11-.31H5.7a8.53 8.53 0 0 0-2.11.31 2.9 2.9 0 0 0-1.68 1.68A8.06 8.06 0 0 0 1.6 5.7v6.1a8.53 8.53 0 0 0 .31 2.11 3 3 0 0 0 1.68 1.68 8.53 8.53 0 0 0 2.11.31h6.1a8.06 8.06 0 0 0 2.11-.31 3 3 0 0 0 1.68-1.68zM8.75 4.26a4.41 4.41 0 0 1 2.25.6 4.6 4.6 0 0 1 1.64 1.64 4.52 4.52 0 0 1 0 4.5A4.6 4.6 0 0 1 11 12.64a4.52 4.52 0 0 1-4.5 0A4.6 4.6 0 0 1 4.86 11a4.52 4.52 0 0 1 0-4.5A4.6 4.6 0 0 1 6.5 4.86a4.41 4.41 0 0 1 2.25-.6zm0 7.42a2.94 2.94 0 0 0 2.93-2.93 2.94 2.94 0 0 0-2.93-2.93 2.94 2.94 0 0 0-2.93 2.93 2.94 2.94 0 0 0 2.93 2.93zm5.74-7.62a1.06 1.06 0 0 0-1.05-1 1 1 0 0 0-.74.31 1 1 0 0 0-.32.74 1 1 0 0 0 .32.74 1 1 0 0 0 .74.32 1 1 0 0 0 .72-.32 1.13 1.13 0 0 0 .33-.79z" fill="#a67d25"/></svg>